<mxfile host="app.diagrams.net" modified="2023-07-27T07:52:06.929Z" agent="Mozilla/5.0 (Windows NT 10.0; Win64; x64) AppleWebKit/537.36 (KHTML, like Gecko) Chrome/115.0.0.0 Safari/537.36" version="21.6.5" etag="GYiTiR2UIGlBqAdAdtGz" type="device">
  <diagram id="XyhW2Dzk4aDmoBSQlhRU" name="Page-1">
    <mxGraphModel dx="2522" dy="914" grid="1" gridSize="10" guides="1" tooltips="1" connect="1" arrows="1" fold="1" page="1" pageScale="1" pageWidth="1100" pageHeight="850" math="0" shadow="0">
      <root>
        <mxCell id="0" />
        <mxCell id="1" parent="0" />
        <mxCell id="mn_-96gz6nlJtjOTwmuX-57" value="" style="rounded=0;whiteSpace=wrap;html=1;strokeColor=#b85450;fillColor=#f8cecc;" vertex="1" parent="1">
          <mxGeometry x="710" width="390" height="590" as="geometry" />
        </mxCell>
        <mxCell id="mn_-96gz6nlJtjOTwmuX-55" value="" style="rounded=0;whiteSpace=wrap;html=1;strokeColor=#82b366;fillColor=#d5e8d4;" vertex="1" parent="1">
          <mxGeometry x="500" y="1" width="190" height="589" as="geometry" />
        </mxCell>
        <mxCell id="mn_-96gz6nlJtjOTwmuX-53" value="" style="rounded=0;whiteSpace=wrap;html=1;strokeColor=#6c8ebf;fillColor=#dae8fc;" vertex="1" parent="1">
          <mxGeometry x="200" width="280" height="590" as="geometry" />
        </mxCell>
        <mxCell id="mn_-96gz6nlJtjOTwmuX-1" value="" style="image;aspect=fixed;perimeter=ellipsePerimeter;html=1;align=center;shadow=0;dashed=0;spacingTop=3;image=img/lib/active_directory/web_server.svg;" vertex="1" parent="1">
          <mxGeometry x="50" y="180" width="64" height="80" as="geometry" />
        </mxCell>
        <mxCell id="mn_-96gz6nlJtjOTwmuX-2" value="Server" style="text;html=1;strokeColor=none;fillColor=none;align=center;verticalAlign=middle;whiteSpace=wrap;rounded=0;" vertex="1" parent="1">
          <mxGeometry x="50" y="250" width="60" height="30" as="geometry" />
        </mxCell>
        <mxCell id="mn_-96gz6nlJtjOTwmuX-3" value="" style="endArrow=classic;html=1;rounded=0;" edge="1" parent="1">
          <mxGeometry width="50" height="50" relative="1" as="geometry">
            <mxPoint x="130" y="210" as="sourcePoint" />
            <mxPoint x="210" y="210" as="targetPoint" />
          </mxGeometry>
        </mxCell>
        <mxCell id="mn_-96gz6nlJtjOTwmuX-4" value="Request" style="text;html=1;strokeColor=none;fillColor=none;align=center;verticalAlign=middle;whiteSpace=wrap;rounded=0;" vertex="1" parent="1">
          <mxGeometry x="140" y="180" width="60" height="30" as="geometry" />
        </mxCell>
        <mxCell id="mn_-96gz6nlJtjOTwmuX-6" value="Controller" style="swimlane;fontStyle=1;align=center;verticalAlign=top;childLayout=stackLayout;horizontal=1;startSize=26;horizontalStack=0;resizeParent=1;resizeParentMax=0;resizeLast=0;collapsible=1;marginBottom=0;whiteSpace=wrap;html=1;" vertex="1" parent="1">
          <mxGeometry x="210" y="177" width="260" height="120" as="geometry" />
        </mxCell>
        <mxCell id="mn_-96gz6nlJtjOTwmuX-7" value="- actorService : ActorService&lt;br&gt;- movieService : MovieService" style="text;strokeColor=none;fillColor=none;align=left;verticalAlign=top;spacingLeft=4;spacingRight=4;overflow=hidden;rotatable=0;points=[[0,0.5],[1,0.5]];portConstraint=eastwest;whiteSpace=wrap;html=1;" vertex="1" parent="mn_-96gz6nlJtjOTwmuX-6">
          <mxGeometry y="26" width="260" height="44" as="geometry" />
        </mxCell>
        <mxCell id="mn_-96gz6nlJtjOTwmuX-8" value="" style="line;strokeWidth=1;fillColor=none;align=left;verticalAlign=middle;spacingTop=-1;spacingLeft=3;spacingRight=3;rotatable=0;labelPosition=right;points=[];portConstraint=eastwest;strokeColor=inherit;" vertex="1" parent="mn_-96gz6nlJtjOTwmuX-6">
          <mxGeometry y="70" width="260" height="8" as="geometry" />
        </mxCell>
        <mxCell id="mn_-96gz6nlJtjOTwmuX-9" value="+ handler(HttpExchange) : void&lt;br&gt;- otherHandlerMethods(HttpExchange) : void" style="text;strokeColor=none;fillColor=none;align=left;verticalAlign=top;spacingLeft=4;spacingRight=4;overflow=hidden;rotatable=0;points=[[0,0.5],[1,0.5]];portConstraint=eastwest;whiteSpace=wrap;html=1;" vertex="1" parent="mn_-96gz6nlJtjOTwmuX-6">
          <mxGeometry y="78" width="260" height="42" as="geometry" />
        </mxCell>
        <mxCell id="mn_-96gz6nlJtjOTwmuX-10" value="" style="endArrow=classic;html=1;rounded=0;" edge="1" parent="1">
          <mxGeometry width="50" height="50" relative="1" as="geometry">
            <mxPoint x="210" y="260" as="sourcePoint" />
            <mxPoint x="130" y="260" as="targetPoint" />
          </mxGeometry>
        </mxCell>
        <mxCell id="mn_-96gz6nlJtjOTwmuX-11" value="Response" style="text;html=1;strokeColor=none;fillColor=none;align=center;verticalAlign=middle;whiteSpace=wrap;rounded=0;" vertex="1" parent="1">
          <mxGeometry x="140" y="260" width="60" height="30" as="geometry" />
        </mxCell>
        <mxCell id="mn_-96gz6nlJtjOTwmuX-12" value="ActorServiceImpl" style="swimlane;fontStyle=1;align=center;verticalAlign=top;childLayout=stackLayout;horizontal=1;startSize=26;horizontalStack=0;resizeParent=1;resizeParentMax=0;resizeLast=0;collapsible=1;marginBottom=0;whiteSpace=wrap;html=1;" vertex="1" parent="1">
          <mxGeometry x="520" y="80" width="160" height="86" as="geometry" />
        </mxCell>
        <mxCell id="mn_-96gz6nlJtjOTwmuX-13" value="- actorDAO : ActorDAO" style="text;strokeColor=none;fillColor=none;align=left;verticalAlign=top;spacingLeft=4;spacingRight=4;overflow=hidden;rotatable=0;points=[[0,0.5],[1,0.5]];portConstraint=eastwest;whiteSpace=wrap;html=1;" vertex="1" parent="mn_-96gz6nlJtjOTwmuX-12">
          <mxGeometry y="26" width="160" height="26" as="geometry" />
        </mxCell>
        <mxCell id="mn_-96gz6nlJtjOTwmuX-14" value="" style="line;strokeWidth=1;fillColor=none;align=left;verticalAlign=middle;spacingTop=-1;spacingLeft=3;spacingRight=3;rotatable=0;labelPosition=right;points=[];portConstraint=eastwest;strokeColor=inherit;" vertex="1" parent="mn_-96gz6nlJtjOTwmuX-12">
          <mxGeometry y="52" width="160" height="8" as="geometry" />
        </mxCell>
        <mxCell id="mn_-96gz6nlJtjOTwmuX-15" value="+ method(type): type" style="text;strokeColor=none;fillColor=none;align=left;verticalAlign=top;spacingLeft=4;spacingRight=4;overflow=hidden;rotatable=0;points=[[0,0.5],[1,0.5]];portConstraint=eastwest;whiteSpace=wrap;html=1;" vertex="1" parent="mn_-96gz6nlJtjOTwmuX-12">
          <mxGeometry y="60" width="160" height="26" as="geometry" />
        </mxCell>
        <mxCell id="mn_-96gz6nlJtjOTwmuX-16" value="MovieServiceImpl" style="swimlane;fontStyle=1;align=center;verticalAlign=top;childLayout=stackLayout;horizontal=1;startSize=26;horizontalStack=0;resizeParent=1;resizeParentMax=0;resizeLast=0;collapsible=1;marginBottom=0;whiteSpace=wrap;html=1;" vertex="1" parent="1">
          <mxGeometry x="520" y="320" width="160" height="86" as="geometry" />
        </mxCell>
        <mxCell id="mn_-96gz6nlJtjOTwmuX-17" value="- movieDAO : MovieDAO" style="text;strokeColor=none;fillColor=none;align=left;verticalAlign=top;spacingLeft=4;spacingRight=4;overflow=hidden;rotatable=0;points=[[0,0.5],[1,0.5]];portConstraint=eastwest;whiteSpace=wrap;html=1;" vertex="1" parent="mn_-96gz6nlJtjOTwmuX-16">
          <mxGeometry y="26" width="160" height="26" as="geometry" />
        </mxCell>
        <mxCell id="mn_-96gz6nlJtjOTwmuX-18" value="" style="line;strokeWidth=1;fillColor=none;align=left;verticalAlign=middle;spacingTop=-1;spacingLeft=3;spacingRight=3;rotatable=0;labelPosition=right;points=[];portConstraint=eastwest;strokeColor=inherit;" vertex="1" parent="mn_-96gz6nlJtjOTwmuX-16">
          <mxGeometry y="52" width="160" height="8" as="geometry" />
        </mxCell>
        <mxCell id="mn_-96gz6nlJtjOTwmuX-19" value="+ method(type): type" style="text;strokeColor=none;fillColor=none;align=left;verticalAlign=top;spacingLeft=4;spacingRight=4;overflow=hidden;rotatable=0;points=[[0,0.5],[1,0.5]];portConstraint=eastwest;whiteSpace=wrap;html=1;" vertex="1" parent="mn_-96gz6nlJtjOTwmuX-16">
          <mxGeometry y="60" width="160" height="26" as="geometry" />
        </mxCell>
        <mxCell id="mn_-96gz6nlJtjOTwmuX-20" value="ActorStub" style="swimlane;fontStyle=1;align=center;verticalAlign=top;childLayout=stackLayout;horizontal=1;startSize=26;horizontalStack=0;resizeParent=1;resizeParentMax=0;resizeLast=0;collapsible=1;marginBottom=0;whiteSpace=wrap;html=1;" vertex="1" parent="1">
          <mxGeometry x="720" y="194" width="160" height="86" as="geometry" />
        </mxCell>
        <mxCell id="mn_-96gz6nlJtjOTwmuX-21" value="&amp;nbsp;list : ArrayList&amp;lt;Actor&amp;gt;" style="text;strokeColor=none;fillColor=none;align=left;verticalAlign=top;spacingLeft=4;spacingRight=4;overflow=hidden;rotatable=0;points=[[0,0.5],[1,0.5]];portConstraint=eastwest;whiteSpace=wrap;html=1;" vertex="1" parent="mn_-96gz6nlJtjOTwmuX-20">
          <mxGeometry y="26" width="160" height="26" as="geometry" />
        </mxCell>
        <mxCell id="mn_-96gz6nlJtjOTwmuX-22" value="" style="line;strokeWidth=1;fillColor=none;align=left;verticalAlign=middle;spacingTop=-1;spacingLeft=3;spacingRight=3;rotatable=0;labelPosition=right;points=[];portConstraint=eastwest;strokeColor=inherit;" vertex="1" parent="mn_-96gz6nlJtjOTwmuX-20">
          <mxGeometry y="52" width="160" height="8" as="geometry" />
        </mxCell>
        <mxCell id="mn_-96gz6nlJtjOTwmuX-23" value="+ methods" style="text;strokeColor=none;fillColor=none;align=left;verticalAlign=top;spacingLeft=4;spacingRight=4;overflow=hidden;rotatable=0;points=[[0,0.5],[1,0.5]];portConstraint=eastwest;whiteSpace=wrap;html=1;" vertex="1" parent="mn_-96gz6nlJtjOTwmuX-20">
          <mxGeometry y="60" width="160" height="26" as="geometry" />
        </mxCell>
        <mxCell id="mn_-96gz6nlJtjOTwmuX-24" value="MovieStub" style="swimlane;fontStyle=1;align=center;verticalAlign=top;childLayout=stackLayout;horizontal=1;startSize=26;horizontalStack=0;resizeParent=1;resizeParentMax=0;resizeLast=0;collapsible=1;marginBottom=0;whiteSpace=wrap;html=1;" vertex="1" parent="1">
          <mxGeometry x="720" y="470" width="160" height="86" as="geometry" />
        </mxCell>
        <mxCell id="mn_-96gz6nlJtjOTwmuX-25" value="&amp;nbsp;list : ArrayList&amp;lt;Movie&amp;gt;" style="text;strokeColor=none;fillColor=none;align=left;verticalAlign=top;spacingLeft=4;spacingRight=4;overflow=hidden;rotatable=0;points=[[0,0.5],[1,0.5]];portConstraint=eastwest;whiteSpace=wrap;html=1;" vertex="1" parent="mn_-96gz6nlJtjOTwmuX-24">
          <mxGeometry y="26" width="160" height="26" as="geometry" />
        </mxCell>
        <mxCell id="mn_-96gz6nlJtjOTwmuX-26" value="" style="line;strokeWidth=1;fillColor=none;align=left;verticalAlign=middle;spacingTop=-1;spacingLeft=3;spacingRight=3;rotatable=0;labelPosition=right;points=[];portConstraint=eastwest;strokeColor=inherit;" vertex="1" parent="mn_-96gz6nlJtjOTwmuX-24">
          <mxGeometry y="52" width="160" height="8" as="geometry" />
        </mxCell>
        <mxCell id="mn_-96gz6nlJtjOTwmuX-27" value="+ methods" style="text;strokeColor=none;fillColor=none;align=left;verticalAlign=top;spacingLeft=4;spacingRight=4;overflow=hidden;rotatable=0;points=[[0,0.5],[1,0.5]];portConstraint=eastwest;whiteSpace=wrap;html=1;" vertex="1" parent="mn_-96gz6nlJtjOTwmuX-24">
          <mxGeometry y="60" width="160" height="26" as="geometry" />
        </mxCell>
        <mxCell id="mn_-96gz6nlJtjOTwmuX-28" value="ActorDAOImpl" style="swimlane;fontStyle=1;align=center;verticalAlign=top;childLayout=stackLayout;horizontal=1;startSize=26;horizontalStack=0;resizeParent=1;resizeParentMax=0;resizeLast=0;collapsible=1;marginBottom=0;whiteSpace=wrap;html=1;" vertex="1" parent="1">
          <mxGeometry x="890" y="194" width="160" height="86" as="geometry" />
        </mxCell>
        <mxCell id="mn_-96gz6nlJtjOTwmuX-29" value="&amp;nbsp;" style="text;strokeColor=none;fillColor=none;align=left;verticalAlign=top;spacingLeft=4;spacingRight=4;overflow=hidden;rotatable=0;points=[[0,0.5],[1,0.5]];portConstraint=eastwest;whiteSpace=wrap;html=1;" vertex="1" parent="mn_-96gz6nlJtjOTwmuX-28">
          <mxGeometry y="26" width="160" height="26" as="geometry" />
        </mxCell>
        <mxCell id="mn_-96gz6nlJtjOTwmuX-30" value="" style="line;strokeWidth=1;fillColor=none;align=left;verticalAlign=middle;spacingTop=-1;spacingLeft=3;spacingRight=3;rotatable=0;labelPosition=right;points=[];portConstraint=eastwest;strokeColor=inherit;" vertex="1" parent="mn_-96gz6nlJtjOTwmuX-28">
          <mxGeometry y="52" width="160" height="8" as="geometry" />
        </mxCell>
        <mxCell id="mn_-96gz6nlJtjOTwmuX-31" value="+ methods" style="text;strokeColor=none;fillColor=none;align=left;verticalAlign=top;spacingLeft=4;spacingRight=4;overflow=hidden;rotatable=0;points=[[0,0.5],[1,0.5]];portConstraint=eastwest;whiteSpace=wrap;html=1;" vertex="1" parent="mn_-96gz6nlJtjOTwmuX-28">
          <mxGeometry y="60" width="160" height="26" as="geometry" />
        </mxCell>
        <mxCell id="mn_-96gz6nlJtjOTwmuX-33" value="MovieDAOImpl" style="swimlane;fontStyle=1;align=center;verticalAlign=top;childLayout=stackLayout;horizontal=1;startSize=26;horizontalStack=0;resizeParent=1;resizeParentMax=0;resizeLast=0;collapsible=1;marginBottom=0;whiteSpace=wrap;html=1;" vertex="1" parent="1">
          <mxGeometry x="890" y="470" width="160" height="86" as="geometry" />
        </mxCell>
        <mxCell id="mn_-96gz6nlJtjOTwmuX-34" value="&amp;nbsp;" style="text;strokeColor=none;fillColor=none;align=left;verticalAlign=top;spacingLeft=4;spacingRight=4;overflow=hidden;rotatable=0;points=[[0,0.5],[1,0.5]];portConstraint=eastwest;whiteSpace=wrap;html=1;" vertex="1" parent="mn_-96gz6nlJtjOTwmuX-33">
          <mxGeometry y="26" width="160" height="26" as="geometry" />
        </mxCell>
        <mxCell id="mn_-96gz6nlJtjOTwmuX-35" value="" style="line;strokeWidth=1;fillColor=none;align=left;verticalAlign=middle;spacingTop=-1;spacingLeft=3;spacingRight=3;rotatable=0;labelPosition=right;points=[];portConstraint=eastwest;strokeColor=inherit;" vertex="1" parent="mn_-96gz6nlJtjOTwmuX-33">
          <mxGeometry y="52" width="160" height="8" as="geometry" />
        </mxCell>
        <mxCell id="mn_-96gz6nlJtjOTwmuX-36" value="+ methods" style="text;strokeColor=none;fillColor=none;align=left;verticalAlign=top;spacingLeft=4;spacingRight=4;overflow=hidden;rotatable=0;points=[[0,0.5],[1,0.5]];portConstraint=eastwest;whiteSpace=wrap;html=1;" vertex="1" parent="mn_-96gz6nlJtjOTwmuX-33">
          <mxGeometry y="60" width="160" height="26" as="geometry" />
        </mxCell>
        <mxCell id="mn_-96gz6nlJtjOTwmuX-37" value="" style="shape=datastore;whiteSpace=wrap;html=1;" vertex="1" parent="1">
          <mxGeometry x="1240" y="177" width="130" height="130" as="geometry" />
        </mxCell>
        <mxCell id="mn_-96gz6nlJtjOTwmuX-38" value="«interface»&lt;br&gt;&lt;b&gt;ActorDao&lt;/b&gt;" style="html=1;whiteSpace=wrap;" vertex="1" parent="1">
          <mxGeometry x="920" y="94" width="110" height="50" as="geometry" />
        </mxCell>
        <mxCell id="mn_-96gz6nlJtjOTwmuX-39" value="«interface»&lt;br&gt;&lt;b&gt;MovieDAO&lt;/b&gt;" style="html=1;whiteSpace=wrap;" vertex="1" parent="1">
          <mxGeometry x="920" y="338" width="110" height="50" as="geometry" />
        </mxCell>
        <mxCell id="mn_-96gz6nlJtjOTwmuX-40" value="" style="endArrow=block;dashed=1;endFill=0;endSize=12;html=1;rounded=0;exitX=0.5;exitY=0;exitDx=0;exitDy=0;entryX=0.25;entryY=1;entryDx=0;entryDy=0;" edge="1" parent="1" source="mn_-96gz6nlJtjOTwmuX-24" target="mn_-96gz6nlJtjOTwmuX-39">
          <mxGeometry width="160" relative="1" as="geometry">
            <mxPoint x="680" y="240" as="sourcePoint" />
            <mxPoint x="840" y="240" as="targetPoint" />
          </mxGeometry>
        </mxCell>
        <mxCell id="mn_-96gz6nlJtjOTwmuX-41" value="" style="endArrow=block;dashed=1;endFill=0;endSize=12;html=1;rounded=0;exitX=0.5;exitY=0;exitDx=0;exitDy=0;entryX=0.75;entryY=1;entryDx=0;entryDy=0;" edge="1" parent="1" source="mn_-96gz6nlJtjOTwmuX-33" target="mn_-96gz6nlJtjOTwmuX-39">
          <mxGeometry width="160" relative="1" as="geometry">
            <mxPoint x="790" y="480" as="sourcePoint" />
            <mxPoint x="858" y="416" as="targetPoint" />
          </mxGeometry>
        </mxCell>
        <mxCell id="mn_-96gz6nlJtjOTwmuX-42" value="" style="endArrow=block;dashed=1;endFill=0;endSize=12;html=1;rounded=0;exitX=0.5;exitY=0;exitDx=0;exitDy=0;entryX=0.25;entryY=1;entryDx=0;entryDy=0;" edge="1" parent="1" target="mn_-96gz6nlJtjOTwmuX-38">
          <mxGeometry width="160" relative="1" as="geometry">
            <mxPoint x="780" y="194" as="sourcePoint" />
            <mxPoint x="850" y="150" as="targetPoint" />
          </mxGeometry>
        </mxCell>
        <mxCell id="mn_-96gz6nlJtjOTwmuX-43" value="" style="endArrow=block;dashed=1;endFill=0;endSize=12;html=1;rounded=0;entryX=0.75;entryY=1;entryDx=0;entryDy=0;" edge="1" parent="1" target="mn_-96gz6nlJtjOTwmuX-38">
          <mxGeometry width="160" relative="1" as="geometry">
            <mxPoint x="970" y="190" as="sourcePoint" />
            <mxPoint x="860" y="160" as="targetPoint" />
          </mxGeometry>
        </mxCell>
        <mxCell id="mn_-96gz6nlJtjOTwmuX-44" value="Use" style="endArrow=open;endSize=12;dashed=1;html=1;rounded=0;exitX=1;exitY=0.5;exitDx=0;exitDy=0;entryX=0;entryY=0.5;entryDx=0;entryDy=0;" edge="1" parent="1" source="mn_-96gz6nlJtjOTwmuX-13" target="mn_-96gz6nlJtjOTwmuX-38">
          <mxGeometry width="160" relative="1" as="geometry">
            <mxPoint x="680" y="490" as="sourcePoint" />
            <mxPoint x="840" y="490" as="targetPoint" />
          </mxGeometry>
        </mxCell>
        <mxCell id="mn_-96gz6nlJtjOTwmuX-45" value="Use" style="endArrow=open;endSize=12;dashed=1;html=1;rounded=0;exitX=1;exitY=0.5;exitDx=0;exitDy=0;entryX=0;entryY=0.5;entryDx=0;entryDy=0;" edge="1" parent="1" source="mn_-96gz6nlJtjOTwmuX-17" target="mn_-96gz6nlJtjOTwmuX-39">
          <mxGeometry width="160" relative="1" as="geometry">
            <mxPoint x="690" y="129" as="sourcePoint" />
            <mxPoint x="830" y="133" as="targetPoint" />
          </mxGeometry>
        </mxCell>
        <mxCell id="mn_-96gz6nlJtjOTwmuX-46" value="neo4j" style="text;html=1;strokeColor=none;fillColor=none;align=center;verticalAlign=middle;whiteSpace=wrap;rounded=0;" vertex="1" parent="1">
          <mxGeometry x="1275" y="267" width="60" height="30" as="geometry" />
        </mxCell>
        <mxCell id="mn_-96gz6nlJtjOTwmuX-47" value="dispatch" style="html=1;verticalAlign=bottom;startArrow=oval;startFill=1;endArrow=block;startSize=8;edgeStyle=elbowEdgeStyle;elbow=vertical;curved=0;rounded=0;entryX=0.799;entryY=0.005;entryDx=0;entryDy=0;entryPerimeter=0;" edge="1" parent="1" target="mn_-96gz6nlJtjOTwmuX-37">
          <mxGeometry width="60" relative="1" as="geometry">
            <mxPoint x="1010" y="90" as="sourcePoint" />
            <mxPoint x="790" y="150" as="targetPoint" />
            <Array as="points">
              <mxPoint x="1160" y="80" />
            </Array>
          </mxGeometry>
        </mxCell>
        <mxCell id="mn_-96gz6nlJtjOTwmuX-48" value="return" style="html=1;verticalAlign=bottom;endArrow=open;dashed=1;endSize=8;edgeStyle=elbowEdgeStyle;elbow=vertical;curved=0;rounded=0;exitX=0.15;exitY=0.05;exitDx=0;exitDy=0;exitPerimeter=0;entryX=1;entryY=0.75;entryDx=0;entryDy=0;" edge="1" parent="1" source="mn_-96gz6nlJtjOTwmuX-37" target="mn_-96gz6nlJtjOTwmuX-38">
          <mxGeometry relative="1" as="geometry">
            <mxPoint x="800" y="150" as="sourcePoint" />
            <mxPoint x="720" y="150" as="targetPoint" />
            <Array as="points">
              <mxPoint x="1150" y="132" />
            </Array>
          </mxGeometry>
        </mxCell>
        <mxCell id="mn_-96gz6nlJtjOTwmuX-49" value="dispatch" style="html=1;verticalAlign=bottom;startArrow=oval;startFill=1;endArrow=block;startSize=8;edgeStyle=elbowEdgeStyle;elbow=vertical;curved=0;rounded=0;exitX=1;exitY=0.75;exitDx=0;exitDy=0;entryX=0.901;entryY=0.967;entryDx=0;entryDy=0;entryPerimeter=0;" edge="1" parent="1" source="mn_-96gz6nlJtjOTwmuX-39" target="mn_-96gz6nlJtjOTwmuX-37">
          <mxGeometry width="60" relative="1" as="geometry">
            <mxPoint x="730" y="240" as="sourcePoint" />
            <mxPoint x="790" y="240" as="targetPoint" />
            <Array as="points">
              <mxPoint x="1200" y="376" />
            </Array>
          </mxGeometry>
        </mxCell>
        <mxCell id="mn_-96gz6nlJtjOTwmuX-50" value="return" style="html=1;verticalAlign=bottom;endArrow=open;dashed=1;endSize=8;edgeStyle=elbowEdgeStyle;elbow=vertical;curved=0;rounded=0;exitX=0.15;exitY=0.95;exitDx=0;exitDy=0;exitPerimeter=0;entryX=0.75;entryY=0;entryDx=0;entryDy=0;" edge="1" parent="1" source="mn_-96gz6nlJtjOTwmuX-37" target="mn_-96gz6nlJtjOTwmuX-39">
          <mxGeometry relative="1" as="geometry">
            <mxPoint x="800" y="240" as="sourcePoint" />
            <mxPoint x="720" y="240" as="targetPoint" />
          </mxGeometry>
        </mxCell>
        <mxCell id="mn_-96gz6nlJtjOTwmuX-51" value="Use" style="endArrow=open;endSize=12;dashed=1;html=1;rounded=0;exitX=1;exitY=0.5;exitDx=0;exitDy=0;entryX=0;entryY=0.5;entryDx=0;entryDy=0;" edge="1" parent="1" source="mn_-96gz6nlJtjOTwmuX-9" target="mn_-96gz6nlJtjOTwmuX-17">
          <mxGeometry width="160" relative="1" as="geometry">
            <mxPoint x="580" y="250" as="sourcePoint" />
            <mxPoint x="740" y="250" as="targetPoint" />
          </mxGeometry>
        </mxCell>
        <mxCell id="mn_-96gz6nlJtjOTwmuX-52" value="Use" style="endArrow=open;endSize=12;dashed=1;html=1;rounded=0;exitX=1;exitY=0.5;exitDx=0;exitDy=0;entryX=0;entryY=0.5;entryDx=0;entryDy=0;" edge="1" parent="1" source="mn_-96gz6nlJtjOTwmuX-7" target="mn_-96gz6nlJtjOTwmuX-13">
          <mxGeometry width="160" relative="1" as="geometry">
            <mxPoint x="500" y="210" as="sourcePoint" />
            <mxPoint x="660" y="210" as="targetPoint" />
          </mxGeometry>
        </mxCell>
        <mxCell id="mn_-96gz6nlJtjOTwmuX-54" value="&lt;font size=&quot;1&quot; style=&quot;&quot;&gt;&lt;b style=&quot;font-size: 22px;&quot;&gt;Control Layer&lt;br&gt;(handle requests)&lt;br&gt;&lt;/b&gt;&lt;/font&gt;" style="text;html=1;strokeColor=none;fillColor=none;align=center;verticalAlign=middle;whiteSpace=wrap;rounded=0;" vertex="1" parent="1">
          <mxGeometry x="240" width="205" height="80" as="geometry" />
        </mxCell>
        <mxCell id="mn_-96gz6nlJtjOTwmuX-56" value="&lt;font size=&quot;1&quot; style=&quot;&quot;&gt;&lt;b style=&quot;font-size: 22px;&quot;&gt;Service Layer&lt;br&gt;(business logic)&lt;br&gt;&lt;/b&gt;&lt;/font&gt;" style="text;html=1;strokeColor=none;fillColor=none;align=center;verticalAlign=middle;whiteSpace=wrap;rounded=0;" vertex="1" parent="1">
          <mxGeometry x="505" y="5" width="190" height="70" as="geometry" />
        </mxCell>
        <mxCell id="mn_-96gz6nlJtjOTwmuX-58" value="&lt;font size=&quot;1&quot; style=&quot;&quot;&gt;&lt;b style=&quot;font-size: 22px;&quot;&gt;Persistence Layer&lt;br&gt;(data storage)&lt;br&gt;&lt;/b&gt;&lt;/font&gt;" style="text;html=1;strokeColor=none;fillColor=none;align=center;verticalAlign=middle;whiteSpace=wrap;rounded=0;" vertex="1" parent="1">
          <mxGeometry x="795" width="220" height="70" as="geometry" />
        </mxCell>
      </root>
    </mxGraphModel>
  </diagram>
</mxfile>
